<svg width="180" height="32" fill="none" xmlns="http://www.w3.org/2000/svg"><path d="M0 31h110" stroke="#0E9E2F" stroke-width=".5" stroke-dasharray="3 3"/><path d="M153.765 24.047h9.514v3.147h-9.514v-3.147zm.299-4.045h4.046v3.521h-4.046v-3.521zm4.87 0h4.045v3.521h-4.045v-3.521zm-9.964 0h4.045v3.521h-4.045v-3.521zm-4.945 0h4.046v3.521h-4.046v-3.521zm-.224 4.045h9.514v3.147h-9.514v-3.147zm-15.733-4.12h1.349v1.424h-1.349v-1.424zm2.248 0h1.349v1.424h-1.349v-1.424zm2.172 2.247h1.348v1.424h-1.348v-1.424zm-2.172 0h1.349v1.424h-1.349v-1.424zm-2.248 0h1.349v1.424h-1.349v-1.424zm4.42-2.247h1.348v1.424h-1.348v-1.424zm2.248 0h1.349v1.424h-1.349v-1.424zm0 2.247h1.349v1.424h-1.349v-1.424z" fill="#C5C5C5"/><path d="M165.751 24.946c0 1.574-1.049 2.847-2.248 2.847h-12.511v3.071h25.396v-1.498l2.847-4.42h-13.484zm8.615 2.847c-.449 0-.749-.45-.749-.974 0-.525.374-.974.749-.974.449 0 .749.449.749.974 0 .6-.375.974-.749.974z" fill="#C5C5C5"/><path d="M143.201 27.793s-.075 0 0 0c-1.348 0-2.472-1.273-2.697-2.847h-2.472V17.53h-6.068l-.075-8.914h2.472V7.191h-2.472V4.345h2.248v-.674h-2.248V0h-.449v3.671h-1.124v.674h1.124l-.15 13.185h-1.199v-2.248h-1.948v2.248h-3.671v7.417H122l1.049 4.42.374 1.498h40.904v-3.072h-21.126zm-15.957-4.12h-1.348V22.25h1.348v1.423zm0-2.323h-1.348v-1.423h1.348v1.423zm2.173 2.323h-1.348V22.25h1.348v1.423zm0-2.323h-1.348v-1.423h1.348v1.423zm2.247 2.323h-1.348V22.25h1.348v1.423zm0-2.323h-1.348v-1.423h1.348v1.423zm2.173 2.323h-1.348V22.25h1.348v1.423zm0-2.323h-1.348v-1.423h1.348v1.423zm2.248 2.323h-1.349V22.25h1.349v1.423zm0-2.323h-1.349v-1.423h1.349v1.423z" fill="#C5C5C5"/></svg>