<svg width="176" height="19" fill="none" xmlns="http://www.w3.org/2000/svg"><path d="M0 16h110" stroke="#0E9E2F" stroke-width=".5" stroke-dasharray="3 3"/><path d="M165.786 14.246h3.888c-.524.416-.864 1.015-.864 1.64 0 1.277 1.235 2.317 2.747 2.317 1.512 0 2.747-1.04 2.747-2.316 0-.599-.248-1.172-.772-1.64H176v-.835h-2.468V10h-36.225V.26h-13.546v1.2h7.066v5.207h-4.228v5.757h8.362c.616.077.556.755-.031.806H122v1.017h5.092c-.493.415-.832 1.014-.832 1.64 0 1.276 1.234 2.317 2.746 2.317s2.745-1.04 2.745-2.317c0-.651-.34-1.248-.833-1.64h4.104a1.13 1.13 0 00-.06.285c0 2.084 2.036 3.803 4.474 3.803 2.437 0 4.442-1.692 4.442-3.803 0-.077-.03-.208-.03-.312h2.068c0 .129-.031.234-.031.312 0 2.084 2.036 3.803 4.474 3.803 2.437 0 4.443-1.692 4.443-3.803 0-.052-.031-.13-.062-.285h2.222c0 .13-.031.209-.031.285 0 2.084 2.035 3.803 4.474 3.803 2.437 0 4.443-1.692 4.443-3.803 0-.076-.031-.157-.062-.285" fill="#C5C5C5"/><path d="M162.329 1.78h8.179l3.023 3.828-3.023 3.83h-32.307V1.756c2.159.078 2.005-.678 2.159-1.225h13.454c.06.417 0 1.25 1.697 1.25h6.818z" fill="#C5C5C5"/></svg>