<svg width="176" height="20" fill="none" xmlns="http://www.w3.org/2000/svg"><path d="M0 19h110" stroke="#0E9E2F" stroke-width=".5" stroke-dasharray="3 3"/><path fill-rule="evenodd" clip-rule="evenodd" d="M168.137 3.015v2.45h5.14v.652h-5.14v3.965h-.963V0h-1.67v1.434h-41.835V0H122v14.58h3.357l1.265 2.6h.668a2.395 2.395 0 012.397-2.397 2.395 2.395 0 012.396 2.397h.843a2.395 2.395 0 114.792 0h.83l1.266-2.6h14.498l1.266 2.6h1.686a2.395 2.395 0 012.397-2.397 2.395 2.395 0 012.397 2.397h6.352a2.394 2.394 0 012.396-2.397 2.394 2.394 0 012.396 2.366c1.112-.082 2.722-.242 2.722-1.494V6.498c0-2.055-6.128-3.314-7.788-3.483h.001zm-30.384 9.092H126.38v.939h11.373v-.94zm13.669 0h-11.373v.939h11.373v-.94zm15.511.896h-8.687l-2.19.835h10.877v-.835zm1.122-1.826h-3.391v.834h3.391v-.834zm-38.368 4.213a1.79 1.79 0 100 3.581 1.79 1.79 0 000-3.581zm5.635 0a1.79 1.79 0 100 3.581 1.79 1.79 0 000-3.581zm24.34 0a1.79 1.79 0 100 3.581 1.79 1.79 0 000-3.581zm11.144 0a1.79 1.79 0 10.001 3.58 1.79 1.79 0 00-.001-3.58zm4.375-3.195V7.693h-3.062c-1.72 0-2.537 2.353 0 3.326l3.062 1.176z" fill="#C5C5C5"/></svg>